<svg width="147" height="51" xmlns="http://www.w3.org/2000/svg">

 <g>
  <title>background</title>
  <rect fill="none" id="canvas_background" height="402" width="582" y="-1" x="-1"/>
 </g>
 <g>
  <title>Layer 1</title>
  <g id="svg_1" fill-rule="evenodd" fill="#FFF">
   <polygon id="svg_2" points="0 0 0 46 40 0"/>
   <path id="svg_3" d="m23.14875,27l-19.43317,22.05448l-1.71558,1.94552l37,0c-2.02981,-9.85899 -7.83675,-18.35579 -15.85125,-24"/>
   <g id="svg_4">
    <path id="svg_5" d="m59.3,36.99l0,-6.7l2.1,-0.2l4,7l4.1,0l-5,-8.8l4.8,-7.7l-4,0l-3.9,6.4l-2,0.2l0,-13.6l-3.6,0l0,23.4l3.5,0zm13,0l3.6,0l0,-16.5l-3.6,0l0,16.5zm0,-19.3l3.6,0l0,-3.8l-3.6,0l0,3.8zm15.7,2.5c-1.9,0 -4.1,1 -4.1,1l0,-7.5l-3.6,0l0,23.4c0,0 4.3,0.4 6,0.4c5.9,0 8.1,-2 8.1,-8.9c0,-6.2 -1.9,-8.4 -6.4,-8.4zm-1.7,14c-0.7,0 -2.5,-0.1 -2.5,-0.1l0,-10c0,0 1.9,-0.7 3.7,-0.7c2.2,0 3.2,1.5 3.2,5.2c0,4 -0.7,5.6 -4.4,5.6zm23.9,-8.6c0,-3.8 -1.7,-5.5 -5.7,-5.5c-3,0 -6.6,0.9 -6.6,0.9l0.1,2.5c0,0 4,-0.3 6.2,-0.3c1.6,0 2.4,0.6 2.4,2.4l0,1.2l-4.3,0.4c-3.5,0.3 -5.5,1.5 -5.5,5c0,3.4 1.7,5.3 4.9,5.3c2.7,0 5.3,-1.2 5.3,-1.2c1.2,1 2.4,1.2 4.4,1.2l0.1,-2.7c-1,-0.1 -1.4,-0.5 -1.5,-1.5l0.2,-7.7zm-3.6,3.7l0,4.4c0,0 -2.2,0.7 -4.1,0.7c-1.4,0 -2,-0.9 -2,-2.4c0,-1.5 0.8,-2.2 2.3,-2.3l3.8,-0.4zm11.7,7.7l0,-12.8c0,0 1.8,-0.9 3.7,-0.9c2.5,0 2.9,1.6 2.9,4.9l0,8.8l3.6,0l0,-8.9c0,-5.4 -1.1,-8 -5.7,-8c-2.1,0 -4.6,1.4 -4.6,1.4l0,-1l-3.6,0l0,16.5l3.7,0zm26.6,-11.4c0,-3.8 -1.7,-5.5 -5.7,-5.5c-3,0 -6.6,0.9 -6.6,0.9l0.1,2.5c0,0 4,-0.3 6.2,-0.3c1.6,0 2.4,0.6 2.4,2.4l0,1.2l-4.3,0.4c-3.5,0.3 -5.5,1.5 -5.5,5c0,3.4 1.7,5.3 4.9,5.3c2.7,0 5.3,-1.2 5.3,-1.2c1.2,1 2.4,1.2 4.4,1.2l0.1,-2.7c-1,-0.1 -1.4,-0.5 -1.5,-1.5l0.2,-7.7zm-3.6,3.7l0,4.4c0,0 -2.2,0.7 -4.1,0.7c-1.4,0 -2,-0.9 -2,-2.4c0,-1.5 0.8,-2.2 2.3,-2.3l3.8,-0.4z"/>
   </g>
  </g>
  <path d="m28,9.54375c0,0 -0.796644,3.09316 -5,12.000001c-2.862968,6.066582 -4.211794,7.384588 -5,8c-3.249854,2.537411 -1.963715,9.733067 -1,10c5.619375,1.556477 9.661945,-17.232876 26,-32.000001c2.674862,-2.417669 3,0 3,2c0,6 0,10.000001 0,15.000001c0,2 0,3 0,5c0,1 5.29805,-3.710579 15,-14.000001c8.26091,-8.761127 10,-11 10,-10c0,0 -1.327652,5.949969 -3,18.000001c-1.244812,8.969418 -11.187881,18.382557 -6,22c5.252327,3.66238 17.450142,-16.927132 26,-30.000001c1.223907,-1.871376 2,-4 2,-3c0,7.000001 0,13.000001 0,18.000001c0,5 1.354637,5.732651 4,4c22.508888,-14.742798 26,-32.000001 27,-33.000001c0,0 0,2 0,11c0,9.000001 0,13.000001 1,13.000001c0,0 4.096603,-0.533739 10,-2c6.138062,-1.524546 8,-2 8,-2c0,4 -3,13 -3,15l-1,1" id="svg_6" stroke-width="1.5" stroke="#000" fill="none"/>
 </g>
</svg>